<svg width="108" height="108" viewBox="0 0 108 108" fill="none" xmlns="http://www.w3.org/2000/svg">
<g opacity="0.7" filter="url(#filter0_d_26_279)">
<rect x="34" y="30" width="40" height="40" rx="20" fill="white"/>
<path d="M59.3 57.1218C59.5655 57.3996 59.7144 57.7748 59.7144 58.1658C59.7144 58.5568 59.5655 58.9319 59.3 59.2098C59.1697 59.3469 59.0143 59.4559 58.8429 59.5302C58.6716 59.6046 58.4877 59.6429 58.3019 59.6429C58.1161 59.6429 57.9322 59.6046 57.7609 59.5302C57.5895 59.4559 57.4342 59.3469 57.3038 59.2098L49.4138 50.8665C49.1487 50.588 49.0001 50.2126 49.0001 49.8214C49.0001 49.4303 49.1487 49.0548 49.4138 48.7764L57.3038 40.4331C57.4342 40.2959 57.5895 40.187 57.7609 40.1126C57.9322 40.0383 58.1161 40 58.3019 40C58.4877 40 58.6716 40.0383 58.8429 40.1126C59.0143 40.187 59.1697 40.2959 59.3 40.4331C59.5655 40.7109 59.7144 41.0861 59.7144 41.4771C59.7144 41.8681 59.5655 42.2432 59.3 42.5211L52.8293 49.8246L59.3 57.1218Z" fill="#848484"/>
</g>
<defs>
<filter id="filter0_d_26_279" x="0" y="0" width="108" height="108" filterUnits="userSpaceOnUse" color-interpolation-filters="sRGB">
<feFlood flood-opacity="0" result="BackgroundImageFix"/>
<feColorMatrix in="SourceAlpha" type="matrix" values="0 0 0 0 0 0 0 0 0 0 0 0 0 0 0 0 0 0 127 0" result="hardAlpha"/>
<feOffset dy="4"/>
<feGaussianBlur stdDeviation="17"/>
<feColorMatrix type="matrix" values="0 0 0 0 0 0 0 0 0 0 0 0 0 0 0 0 0 0 0.21 0"/>
<feBlend mode="normal" in2="BackgroundImageFix" result="effect1_dropShadow_26_279"/>
<feBlend mode="normal" in="SourceGraphic" in2="effect1_dropShadow_26_279" result="shape"/>
</filter>
</defs>
</svg>
